<svg width="257" height="143" viewBox="0 0 257 143" fill="none" xmlns="http://www.w3.org/2000/svg">
<path d="M41.0663 46H30.1223L11.8183 18.288V46H0.87425V1.072H11.8183L30.1223 28.912V1.072H41.0663V46ZM127.069 1.072V9.84H115.165V46H104.221V9.84H92.3173V1.072H127.069ZM77.5355 97.072V142H66.5915V115.056L56.5435 142H47.7115L37.5995 114.992V142H26.6555V97.072H39.5835L52.1915 128.176L64.6715 97.072H77.5355ZM96.3495 97.072V142H85.4055V97.072H96.3495ZM144.473 142H133.529L115.225 114.288V142H104.281V97.072H115.225L133.529 124.912V97.072H144.473V142ZM169.238 97.072C173.974 97.072 178.112 98.0107 181.654 99.888C185.195 101.765 187.926 104.411 189.846 107.824C191.808 111.195 192.79 115.099 192.79 119.536C192.79 123.931 191.808 127.835 189.846 131.248C187.926 134.661 185.174 137.307 181.59 139.184C178.048 141.061 173.931 142 169.238 142H152.406V97.072H169.238ZM168.534 132.528C172.672 132.528 175.894 131.397 178.198 129.136C180.502 126.875 181.654 123.675 181.654 119.536C181.654 115.397 180.502 112.176 178.198 109.872C175.894 107.568 172.672 106.416 168.534 106.416H163.35V132.528H168.534ZM215.162 142.448C211.876 142.448 208.932 141.915 206.33 140.848C203.727 139.781 201.636 138.203 200.058 136.112C198.522 134.021 197.711 131.504 197.626 128.56H209.274C209.444 130.224 210.02 131.504 211.002 132.4C211.983 133.253 213.263 133.68 214.842 133.68C216.463 133.68 217.743 133.317 218.682 132.592C219.62 131.824 220.09 130.779 220.09 129.456C220.09 128.347 219.706 127.429 218.938 126.704C218.212 125.979 217.295 125.381 216.186 124.912C215.119 124.443 213.583 123.909 211.578 123.312C208.676 122.416 206.308 121.52 204.474 120.624C202.639 119.728 201.06 118.405 199.738 116.656C198.415 114.907 197.754 112.624 197.754 109.808C197.754 105.627 199.268 102.363 202.298 100.016C205.327 97.6267 209.274 96.432 214.138 96.432C219.087 96.432 223.076 97.6267 226.106 100.016C229.135 102.363 230.756 105.648 230.97 109.872H219.13C219.044 108.421 218.511 107.291 217.53 106.48C216.548 105.627 215.29 105.2 213.753 105.2C212.431 105.2 211.364 105.563 210.554 106.288C209.743 106.971 209.338 107.973 209.338 109.296C209.338 110.747 210.02 111.877 211.385 112.688C212.751 113.499 214.884 114.373 217.786 115.312C220.687 116.293 223.034 117.232 224.826 118.128C226.66 119.024 228.239 120.325 229.562 122.032C230.884 123.739 231.546 125.936 231.546 128.624C231.546 131.184 230.884 133.509 229.562 135.6C228.282 137.691 226.404 139.355 223.93 140.592C221.455 141.829 218.532 142.448 215.162 142.448Z" fill="black"/>
<path d="M76.5193 46L67.3673 32.24L59.3033 46H46.8873L61.2873 23.152L46.5673 1.072H59.3033L68.3273 14.64L76.2633 1.072H88.6793L74.4073 23.728L89.2553 46H76.5193ZM162.386 15.28C161.575 13.7867 160.402 12.656 158.866 11.888C157.372 11.0773 155.602 10.672 153.554 10.672C150.012 10.672 147.175 11.8453 145.042 14.192C142.908 16.496 141.842 19.5893 141.842 23.472C141.842 27.6107 142.951 30.8533 145.17 33.2C147.431 35.504 150.524 36.656 154.45 36.656C157.138 36.656 159.399 35.9733 161.234 34.608C163.111 33.2427 164.476 31.28 165.33 28.72H151.442V20.656H175.25V30.832C174.439 33.5627 173.052 36.1013 171.09 38.448C169.17 40.7947 166.716 42.6933 163.73 44.144C160.743 45.5947 157.372 46.32 153.618 46.32C149.18 46.32 145.212 45.36 141.714 43.44C138.258 41.4773 135.548 38.768 133.586 35.312C131.666 31.856 130.706 27.9093 130.706 23.472C130.706 19.0347 131.666 15.088 133.586 11.632C135.548 8.13333 138.258 5.424 141.714 3.504C145.17 1.54133 149.116 0.559998 153.554 0.559998C158.93 0.559998 163.452 1.86133 167.122 4.464C170.834 7.06667 173.287 10.672 174.482 15.28H162.386ZM192.256 9.84V18.928H206.912V27.376H192.256V37.232H208.832V46H181.312V1.072H208.832V9.84H192.256ZM256.129 46H245.185L226.881 18.288V46H215.937V1.072H226.881L245.185 28.912V1.072H256.129V46Z" fill="#71BF47"/>
</svg>
